<mxfile modified="2019-11-29T10:26:49.935Z" host="www.draw.io" agent="Mozilla/5.0 (Windows NT 10.0; Win64; x64) AppleWebKit/537.36 (KHTML, like Gecko) Chrome/78.0.3904.108 Safari/537.36" etag="it2iFs5BX5oMtF_etdRz" version="12.3.3" type="github" pages="4">
  <diagram id="ZAqHVKBO3mxk9_R7XnRH" name="Segments by Country">
    <mxGraphModel dx="1449" dy="629" grid="1" gridSize="10" guides="1" tooltips="1" connect="1" arrows="1" fold="1" page="1" pageScale="1" pageWidth="827" pageHeight="1169" math="0" shadow="0">
      <root>
        <mxCell id="0"/>
        <mxCell id="1" parent="0"/>
        <mxCell id="C-BNwN-aX1knpNmEbtPw-8" value="&lt;b&gt;&lt;font style=&quot;font-size: 19px&quot;&gt;B2C&lt;/font&gt;&lt;/b&gt;" style="rounded=1;whiteSpace=wrap;html=1;verticalAlign=top;fillColor=#eeeeee;strokeColor=none;glass=0;comic=0;perimeterSpacing=3;arcSize=5;" parent="1" vertex="1">
          <mxGeometry x="578" y="40" width="132" height="410" as="geometry"/>
        </mxCell>
        <mxCell id="h3p3pEocYEC31KhZvrrD-1" value="&lt;b&gt;&lt;font style=&quot;font-size: 19px&quot;&gt;B2B&lt;/font&gt;&lt;/b&gt;" style="rounded=1;whiteSpace=wrap;html=1;verticalAlign=top;fillColor=#eeeeee;strokeColor=none;glass=0;comic=0;perimeterSpacing=3;arcSize=3;" parent="1" vertex="1">
          <mxGeometry x="80" y="40" width="490" height="410" as="geometry"/>
        </mxCell>
        <mxCell id="h3p3pEocYEC31KhZvrrD-3" value="&lt;font style=&quot;font-size: 14px&quot;&gt;Project&lt;/font&gt;" style="rounded=1;whiteSpace=wrap;html=1;fillColor=#ffcc99;strokeColor=none;verticalAlign=top;fontStyle=1" parent="1" vertex="1">
          <mxGeometry x="85" y="80" width="80" height="360" as="geometry"/>
        </mxCell>
        <mxCell id="C-BNwN-aX1knpNmEbtPw-9" value="&lt;font style=&quot;font-size: 14px&quot;&gt;House Builders&lt;/font&gt;" style="rounded=1;whiteSpace=wrap;html=1;fillColor=#ffcc99;strokeColor=none;verticalAlign=top;fontStyle=1" parent="1" vertex="1">
          <mxGeometry x="173" y="80" width="80" height="360" as="geometry"/>
        </mxCell>
        <mxCell id="C-BNwN-aX1knpNmEbtPw-10" value="&lt;font style=&quot;font-size: 14px&quot;&gt;Social Housing&lt;/font&gt;" style="rounded=1;whiteSpace=wrap;html=1;fillColor=#ffcc99;strokeColor=none;verticalAlign=top;fontStyle=1" parent="1" vertex="1">
          <mxGeometry x="262" y="80" width="80" height="360" as="geometry"/>
        </mxCell>
        <mxCell id="C-BNwN-aX1knpNmEbtPw-11" value="&lt;font style=&quot;font-size: 14px&quot;&gt;Tradesmen&lt;/font&gt;" style="rounded=1;whiteSpace=wrap;html=1;fillColor=#ffcc99;strokeColor=none;verticalAlign=top;fontStyle=1" parent="1" vertex="1">
          <mxGeometry x="353" y="80" width="97" height="360" as="geometry"/>
        </mxCell>
        <mxCell id="C-BNwN-aX1knpNmEbtPw-12" value="&lt;font style=&quot;font-size: 14px&quot;&gt;Franchise/&lt;br&gt;Dealers&lt;br&gt;&lt;/font&gt;" style="rounded=1;whiteSpace=wrap;html=1;fillColor=#ffcc99;strokeColor=none;verticalAlign=top;fontStyle=1" parent="1" vertex="1">
          <mxGeometry x="460" y="80" width="99" height="360" as="geometry"/>
        </mxCell>
        <mxCell id="C-BNwN-aX1knpNmEbtPw-13" value="&lt;font style=&quot;font-size: 14px&quot;&gt;Retail&lt;/font&gt;" style="rounded=1;whiteSpace=wrap;html=1;fillColor=#ffcc99;strokeColor=none;verticalAlign=top;fontStyle=1" parent="1" vertex="1">
          <mxGeometry x="588" y="80" width="110" height="360" as="geometry"/>
        </mxCell>
        <mxCell id="C-BNwN-aX1knpNmEbtPw-3" value="&lt;font style=&quot;font-size: 18px&quot;&gt;Denmark&lt;/font&gt;" style="rounded=1;whiteSpace=wrap;html=1;align=left;fillColor=#ffcccc;strokeColor=#36393d;opacity=30;fontStyle=1" parent="1" vertex="1">
          <mxGeometry y="141" width="720" height="60" as="geometry"/>
        </mxCell>
        <mxCell id="C-BNwN-aX1knpNmEbtPw-14" value="&lt;font style=&quot;font-size: 18px&quot;&gt;Finland&lt;/font&gt;" style="rounded=1;whiteSpace=wrap;html=1;align=left;fillColor=#ffcccc;strokeColor=#36393d;opacity=30;fontStyle=1" parent="1" vertex="1">
          <mxGeometry y="212" width="720" height="60" as="geometry"/>
        </mxCell>
        <mxCell id="C-BNwN-aX1knpNmEbtPw-15" value="&lt;font style=&quot;font-size: 18px&quot;&gt;Norway&lt;/font&gt;" style="rounded=1;whiteSpace=wrap;html=1;align=left;fillColor=#ffcccc;strokeColor=#36393d;opacity=30;fontStyle=1" parent="1" vertex="1">
          <mxGeometry y="285" width="720" height="60" as="geometry"/>
        </mxCell>
        <mxCell id="C-BNwN-aX1knpNmEbtPw-16" value="&lt;font style=&quot;font-size: 18px&quot;&gt;Sweden&lt;/font&gt;" style="rounded=1;whiteSpace=wrap;html=1;align=left;fillColor=#ffcccc;strokeColor=#36393d;opacity=30;fontStyle=1" parent="1" vertex="1">
          <mxGeometry y="360" width="720" height="60" as="geometry"/>
        </mxCell>
        <mxCell id="C-BNwN-aX1knpNmEbtPw-20" value="" style="shape=image;html=1;verticalAlign=top;verticalLabelPosition=bottom;labelBackgroundColor=#ffffff;imageAspect=0;aspect=fixed;image=https://cdn0.iconfinder.com/data/icons/free-daily-icon-set/512/Tick-128.png;glass=0;comic=0;opacity=70;align=left;" parent="1" vertex="1">
          <mxGeometry x="99.5" y="144.5" width="51" height="51" as="geometry"/>
        </mxCell>
        <mxCell id="C-BNwN-aX1knpNmEbtPw-21" value="" style="shape=image;html=1;verticalAlign=top;verticalLabelPosition=bottom;labelBackgroundColor=#ffffff;imageAspect=0;aspect=fixed;image=https://cdn0.iconfinder.com/data/icons/free-daily-icon-set/512/Tick-128.png;glass=0;comic=0;opacity=70;align=left;" parent="1" vertex="1">
          <mxGeometry x="187" y="144.5" width="51" height="51" as="geometry"/>
        </mxCell>
        <mxCell id="C-BNwN-aX1knpNmEbtPw-22" value="" style="shape=image;html=1;verticalAlign=top;verticalLabelPosition=bottom;labelBackgroundColor=#ffffff;imageAspect=0;aspect=fixed;image=https://cdn0.iconfinder.com/data/icons/free-daily-icon-set/512/Tick-128.png;glass=0;comic=0;opacity=70;align=left;" parent="1" vertex="1">
          <mxGeometry x="276.5" y="144.5" width="51" height="51" as="geometry"/>
        </mxCell>
        <mxCell id="C-BNwN-aX1knpNmEbtPw-23" value="" style="shape=image;html=1;verticalAlign=top;verticalLabelPosition=bottom;labelBackgroundColor=#ffffff;imageAspect=0;aspect=fixed;image=https://cdn0.iconfinder.com/data/icons/free-daily-icon-set/512/Tick-128.png;glass=0;comic=0;opacity=70;align=left;" parent="1" vertex="1">
          <mxGeometry x="372.5" y="144.5" width="51" height="51" as="geometry"/>
        </mxCell>
        <mxCell id="C-BNwN-aX1knpNmEbtPw-24" value="" style="shape=image;html=1;verticalAlign=top;verticalLabelPosition=bottom;labelBackgroundColor=#ffffff;imageAspect=0;aspect=fixed;image=https://cdn0.iconfinder.com/data/icons/free-daily-icon-set/512/Tick-128.png;glass=0;comic=0;opacity=70;align=left;" parent="1" vertex="1">
          <mxGeometry x="478.5" y="144.5" width="51" height="51" as="geometry"/>
        </mxCell>
        <mxCell id="C-BNwN-aX1knpNmEbtPw-25" value="" style="shape=image;html=1;verticalAlign=top;verticalLabelPosition=bottom;labelBackgroundColor=#ffffff;imageAspect=0;aspect=fixed;image=https://cdn0.iconfinder.com/data/icons/free-daily-icon-set/512/Tick-128.png;glass=0;comic=0;opacity=70;align=left;" parent="1" vertex="1">
          <mxGeometry x="617.5" y="144.5" width="51" height="51" as="geometry"/>
        </mxCell>
        <mxCell id="C-BNwN-aX1knpNmEbtPw-27" value="" style="shape=image;html=1;verticalAlign=top;verticalLabelPosition=bottom;labelBackgroundColor=#ffffff;imageAspect=0;aspect=fixed;image=https://cdn0.iconfinder.com/data/icons/free-daily-icon-set/512/Tick-128.png;glass=0;comic=0;opacity=70;align=left;" parent="1" vertex="1">
          <mxGeometry x="99.5" y="215" width="51" height="51" as="geometry"/>
        </mxCell>
        <mxCell id="C-BNwN-aX1knpNmEbtPw-33" value="" style="shape=image;html=1;verticalAlign=top;verticalLabelPosition=bottom;labelBackgroundColor=#ffffff;imageAspect=0;aspect=fixed;image=https://cdn0.iconfinder.com/data/icons/feather/96/circle-cross-128.png;glass=0;comic=0;opacity=70;align=left;" parent="1" vertex="1">
          <mxGeometry x="277.5" y="288.5" width="49" height="49" as="geometry"/>
        </mxCell>
        <mxCell id="C-BNwN-aX1knpNmEbtPw-34" value="" style="shape=image;html=1;verticalAlign=top;verticalLabelPosition=bottom;labelBackgroundColor=#ffffff;imageAspect=0;aspect=fixed;image=https://cdn0.iconfinder.com/data/icons/feather/96/circle-cross-128.png;glass=0;comic=0;opacity=70;align=left;" parent="1" vertex="1">
          <mxGeometry x="373.5" y="288.5" width="49" height="49" as="geometry"/>
        </mxCell>
        <mxCell id="C-BNwN-aX1knpNmEbtPw-35" value="" style="shape=image;html=1;verticalAlign=top;verticalLabelPosition=bottom;labelBackgroundColor=#ffffff;imageAspect=0;aspect=fixed;image=https://cdn0.iconfinder.com/data/icons/free-daily-icon-set/512/Tick-128.png;glass=0;comic=0;opacity=70;align=left;" parent="1" vertex="1">
          <mxGeometry x="478.5" y="287.5" width="51" height="51" as="geometry"/>
        </mxCell>
        <mxCell id="C-BNwN-aX1knpNmEbtPw-36" value="" style="shape=image;html=1;verticalAlign=top;verticalLabelPosition=bottom;labelBackgroundColor=#ffffff;imageAspect=0;aspect=fixed;image=https://cdn0.iconfinder.com/data/icons/feather/96/circle-cross-128.png;glass=0;comic=0;opacity=70;align=left;" parent="1" vertex="1">
          <mxGeometry x="618.5" y="288.5" width="49" height="49" as="geometry"/>
        </mxCell>
        <mxCell id="C-BNwN-aX1knpNmEbtPw-37" value="" style="shape=image;html=1;verticalAlign=top;verticalLabelPosition=bottom;labelBackgroundColor=#ffffff;imageAspect=0;aspect=fixed;image=https://cdn0.iconfinder.com/data/icons/free-daily-icon-set/512/Tick-128.png;glass=0;comic=0;opacity=70;align=left;" parent="1" vertex="1">
          <mxGeometry x="99.5" y="369" width="51" height="51" as="geometry"/>
        </mxCell>
        <mxCell id="C-BNwN-aX1knpNmEbtPw-38" value="" style="shape=image;html=1;verticalAlign=top;verticalLabelPosition=bottom;labelBackgroundColor=#ffffff;imageAspect=0;aspect=fixed;image=https://cdn0.iconfinder.com/data/icons/free-daily-icon-set/512/Tick-128.png;glass=0;comic=0;opacity=70;align=left;" parent="1" vertex="1">
          <mxGeometry x="187" y="369" width="51" height="51" as="geometry"/>
        </mxCell>
        <mxCell id="C-BNwN-aX1knpNmEbtPw-40" value="" style="shape=image;html=1;verticalAlign=top;verticalLabelPosition=bottom;labelBackgroundColor=#ffffff;imageAspect=0;aspect=fixed;image=https://cdn0.iconfinder.com/data/icons/feather/96/circle-cross-128.png;glass=0;comic=0;opacity=70;align=left;" parent="1" vertex="1">
          <mxGeometry x="277.5" y="370" width="49" height="49" as="geometry"/>
        </mxCell>
        <mxCell id="C-BNwN-aX1knpNmEbtPw-42" value="" style="shape=image;html=1;verticalAlign=top;verticalLabelPosition=bottom;labelBackgroundColor=#ffffff;imageAspect=0;aspect=fixed;image=https://cdn0.iconfinder.com/data/icons/free-daily-icon-set/512/Tick-128.png;glass=0;comic=0;opacity=70;align=left;" parent="1" vertex="1">
          <mxGeometry x="478.5" y="369" width="51" height="51" as="geometry"/>
        </mxCell>
        <mxCell id="C-BNwN-aX1knpNmEbtPw-43" value="" style="shape=image;html=1;verticalAlign=top;verticalLabelPosition=bottom;labelBackgroundColor=#ffffff;imageAspect=0;aspect=fixed;image=https://cdn0.iconfinder.com/data/icons/feather/96/circle-cross-128.png;glass=0;comic=0;opacity=70;align=left;" parent="1" vertex="1">
          <mxGeometry x="618.5" y="370" width="49" height="49" as="geometry"/>
        </mxCell>
        <mxCell id="5LenzFSkKdElUdlF8JKO-1" value="" style="shape=image;html=1;verticalAlign=top;verticalLabelPosition=bottom;labelBackgroundColor=#ffffff;imageAspect=0;aspect=fixed;image=https://cdn0.iconfinder.com/data/icons/free-daily-icon-set/512/Tick-128.png;glass=0;comic=0;opacity=70;align=left;" parent="1" vertex="1">
          <mxGeometry x="372.5" y="369" width="51" height="51" as="geometry"/>
        </mxCell>
        <mxCell id="AWYyIcOw-wR34jWp_eGs-1" value="" style="shape=image;html=1;verticalAlign=top;verticalLabelPosition=bottom;labelBackgroundColor=#ffffff;imageAspect=0;aspect=fixed;image=https://cdn0.iconfinder.com/data/icons/feather/96/circle-cross-128.png;glass=0;comic=0;opacity=70;align=left;" parent="1" vertex="1">
          <mxGeometry x="187" y="290.5" width="49" height="49" as="geometry"/>
        </mxCell>
        <mxCell id="AWYyIcOw-wR34jWp_eGs-2" value="" style="shape=image;html=1;verticalAlign=top;verticalLabelPosition=bottom;labelBackgroundColor=#ffffff;imageAspect=0;aspect=fixed;image=https://cdn0.iconfinder.com/data/icons/feather/96/circle-cross-128.png;glass=0;comic=0;opacity=70;align=left;" parent="1" vertex="1">
          <mxGeometry x="99.5" y="288.5" width="49" height="49" as="geometry"/>
        </mxCell>
        <mxCell id="T1M9CIDYmbbRIdoEwLEd-1" value="" style="shape=image;html=1;verticalAlign=top;verticalLabelPosition=bottom;labelBackgroundColor=#ffffff;imageAspect=0;aspect=fixed;image=https://cdn0.iconfinder.com/data/icons/free-daily-icon-set/512/Tick-128.png;glass=0;comic=0;opacity=70;align=left;" parent="1" vertex="1">
          <mxGeometry x="187" y="215" width="51" height="51" as="geometry"/>
        </mxCell>
        <mxCell id="T1M9CIDYmbbRIdoEwLEd-2" value="" style="shape=image;html=1;verticalAlign=top;verticalLabelPosition=bottom;labelBackgroundColor=#ffffff;imageAspect=0;aspect=fixed;image=https://cdn0.iconfinder.com/data/icons/free-daily-icon-set/512/Tick-128.png;glass=0;comic=0;opacity=70;align=left;" parent="1" vertex="1">
          <mxGeometry x="274" y="215" width="51" height="51" as="geometry"/>
        </mxCell>
        <mxCell id="T1M9CIDYmbbRIdoEwLEd-3" value="" style="shape=image;html=1;verticalAlign=top;verticalLabelPosition=bottom;labelBackgroundColor=#ffffff;imageAspect=0;aspect=fixed;image=https://cdn0.iconfinder.com/data/icons/free-daily-icon-set/512/Tick-128.png;glass=0;comic=0;opacity=70;align=left;" parent="1" vertex="1">
          <mxGeometry x="373.5" y="215" width="51" height="51" as="geometry"/>
        </mxCell>
        <mxCell id="T1M9CIDYmbbRIdoEwLEd-4" value="" style="shape=image;html=1;verticalAlign=top;verticalLabelPosition=bottom;labelBackgroundColor=#ffffff;imageAspect=0;aspect=fixed;image=https://cdn0.iconfinder.com/data/icons/free-daily-icon-set/512/Tick-128.png;glass=0;comic=0;opacity=70;align=left;" parent="1" vertex="1">
          <mxGeometry x="478.5" y="215" width="51" height="51" as="geometry"/>
        </mxCell>
        <mxCell id="T1M9CIDYmbbRIdoEwLEd-5" value="" style="shape=image;html=1;verticalAlign=top;verticalLabelPosition=bottom;labelBackgroundColor=#ffffff;imageAspect=0;aspect=fixed;image=https://cdn0.iconfinder.com/data/icons/feather/96/circle-cross-128.png;glass=0;comic=0;opacity=70;align=left;" parent="1" vertex="1">
          <mxGeometry x="617.5" y="220.5" width="49" height="49" as="geometry"/>
        </mxCell>
      </root>
    </mxGraphModel>
  </diagram>
  <diagram name="Segments Sweden Start" id="Mj_kJf1Mj7Kjcx8gMgXE">
    <mxGraphModel dx="1449" dy="629" grid="1" gridSize="10" guides="1" tooltips="1" connect="1" arrows="1" fold="1" page="1" pageScale="1" pageWidth="827" pageHeight="1169" math="0" shadow="0">
      <root>
        <mxCell id="Bn4nens0UOqksBhGr8v3-0"/>
        <mxCell id="Bn4nens0UOqksBhGr8v3-1" parent="Bn4nens0UOqksBhGr8v3-0"/>
        <mxCell id="Bn4nens0UOqksBhGr8v3-42" value="&lt;b&gt;&lt;font style=&quot;font-size: 19px&quot;&gt;B2C&lt;/font&gt;&lt;/b&gt;" style="rounded=1;whiteSpace=wrap;html=1;verticalAlign=top;fillColor=#eeeeee;strokeColor=none;glass=0;comic=0;perimeterSpacing=3;arcSize=3;" parent="Bn4nens0UOqksBhGr8v3-1" vertex="1">
          <mxGeometry x="455" width="130" height="230" as="geometry"/>
        </mxCell>
        <mxCell id="Bn4nens0UOqksBhGr8v3-3" value="&lt;b&gt;&lt;font style=&quot;font-size: 19px&quot;&gt;B2B&lt;/font&gt;&lt;/b&gt;" style="rounded=1;whiteSpace=wrap;html=1;verticalAlign=top;fillColor=#eeeeee;strokeColor=none;glass=0;comic=0;perimeterSpacing=3;arcSize=3;" parent="Bn4nens0UOqksBhGr8v3-1" vertex="1">
          <mxGeometry x="78" width="367" height="230" as="geometry"/>
        </mxCell>
        <mxCell id="Bn4nens0UOqksBhGr8v3-8" value="&lt;font style=&quot;font-size: 14px&quot;&gt;Franchise/&lt;br&gt;Dealers&lt;br&gt;&lt;/font&gt;" style="rounded=1;whiteSpace=wrap;html=1;fillColor=#ffcc99;strokeColor=none;verticalAlign=top;fontStyle=1;arcSize=7;" parent="Bn4nens0UOqksBhGr8v3-1" vertex="1">
          <mxGeometry x="180" y="40" width="245" height="180" as="geometry"/>
        </mxCell>
        <mxCell id="Bn4nens0UOqksBhGr8v3-41" value="&lt;font style=&quot;font-size: 14px&quot;&gt;Project&lt;/font&gt;" style="rounded=1;whiteSpace=wrap;html=1;fillColor=#ffcc99;strokeColor=#000000;verticalAlign=top;fontStyle=1" parent="Bn4nens0UOqksBhGr8v3-1" vertex="1">
          <mxGeometry x="190" y="100" width="105" height="100" as="geometry"/>
        </mxCell>
        <mxCell id="Bn4nens0UOqksBhGr8v3-4" value="&lt;font style=&quot;font-size: 14px&quot;&gt;Project&lt;/font&gt;" style="rounded=1;whiteSpace=wrap;html=1;fillColor=#ffcc99;strokeColor=none;verticalAlign=top;fontStyle=1" parent="Bn4nens0UOqksBhGr8v3-1" vertex="1">
          <mxGeometry x="91" y="40" width="69" height="180" as="geometry"/>
        </mxCell>
        <mxCell id="Bn4nens0UOqksBhGr8v3-7" value="&lt;font style=&quot;font-size: 14px&quot;&gt;Retail&lt;/font&gt;" style="rounded=1;whiteSpace=wrap;html=1;fillColor=#ffcc99;strokeColor=none;verticalAlign=top;fontStyle=1" parent="Bn4nens0UOqksBhGr8v3-1" vertex="1">
          <mxGeometry x="472" y="40" width="97" height="180" as="geometry"/>
        </mxCell>
        <mxCell id="Bn4nens0UOqksBhGr8v3-9" value="&lt;font style=&quot;font-size: 14px&quot;&gt;Retail&lt;/font&gt;" style="rounded=1;whiteSpace=wrap;html=1;fillColor=#ffcc99;strokeColor=#000000;verticalAlign=top;fontStyle=1" parent="Bn4nens0UOqksBhGr8v3-1" vertex="1">
          <mxGeometry x="310" y="100" width="105" height="100" as="geometry"/>
        </mxCell>
        <mxCell id="Bn4nens0UOqksBhGr8v3-13" value="&lt;font style=&quot;font-size: 18px&quot;&gt;Sweden&lt;/font&gt;" style="rounded=1;whiteSpace=wrap;html=1;align=left;fillColor=#ffcccc;strokeColor=#36393d;opacity=30;fontStyle=1" parent="Bn4nens0UOqksBhGr8v3-1" vertex="1">
          <mxGeometry x="5" y="130" width="600" height="60" as="geometry"/>
        </mxCell>
        <mxCell id="Bn4nens0UOqksBhGr8v3-30" value="" style="shape=image;html=1;verticalAlign=top;verticalLabelPosition=bottom;labelBackgroundColor=#ffffff;imageAspect=0;aspect=fixed;image=https://cdn0.iconfinder.com/data/icons/free-daily-icon-set/512/Tick-128.png;glass=0;comic=0;opacity=70;align=left;" parent="Bn4nens0UOqksBhGr8v3-1" vertex="1">
          <mxGeometry x="98.5" y="139" width="51" height="51" as="geometry"/>
        </mxCell>
        <mxCell id="Bn4nens0UOqksBhGr8v3-31" value="" style="shape=image;html=1;verticalAlign=top;verticalLabelPosition=bottom;labelBackgroundColor=#ffffff;imageAspect=0;aspect=fixed;image=https://cdn0.iconfinder.com/data/icons/free-daily-icon-set/512/Tick-128.png;glass=0;comic=0;opacity=70;align=left;" parent="Bn4nens0UOqksBhGr8v3-1" vertex="1">
          <mxGeometry x="215" y="139" width="51" height="51" as="geometry"/>
        </mxCell>
        <mxCell id="piebpj3bdkJP3-VJSoIh-0" value="" style="shape=image;html=1;verticalAlign=top;verticalLabelPosition=bottom;labelBackgroundColor=#ffffff;imageAspect=0;aspect=fixed;image=https://cdn0.iconfinder.com/data/icons/feather/96/circle-cross-128.png;glass=0;comic=0;opacity=70;align=left;" parent="Bn4nens0UOqksBhGr8v3-1" vertex="1">
          <mxGeometry x="495" y="135.5" width="49" height="49" as="geometry"/>
        </mxCell>
        <mxCell id="piebpj3bdkJP3-VJSoIh-1" value="" style="shape=image;html=1;verticalAlign=top;verticalLabelPosition=bottom;labelBackgroundColor=#ffffff;imageAspect=0;aspect=fixed;image=https://cdn0.iconfinder.com/data/icons/free-daily-icon-set/512/Tick-128.png;glass=0;comic=0;opacity=70;align=left;" parent="Bn4nens0UOqksBhGr8v3-1" vertex="1">
          <mxGeometry x="335" y="135.5" width="51" height="51" as="geometry"/>
        </mxCell>
      </root>
    </mxGraphModel>
  </diagram>
  <diagram id="WCWmVeU0zH0m-yQPo__1" name="Page-15">
    <mxGraphModel dx="1449" dy="629" grid="1" gridSize="10" guides="1" tooltips="1" connect="1" arrows="1" fold="1" page="1" pageScale="1" pageWidth="827" pageHeight="1169" math="0" shadow="0">
      <root>
        <mxCell id="XfzgjiFpk3O05pGxmhPy-0"/>
        <mxCell id="XfzgjiFpk3O05pGxmhPy-1" parent="XfzgjiFpk3O05pGxmhPy-0"/>
      </root>
    </mxGraphModel>
  </diagram>
  <diagram name="Project Finland" id="74UnPvUorwmBePL_LZDL">
    <mxGraphModel dx="2276" dy="629" grid="1" gridSize="10" guides="1" tooltips="1" connect="1" arrows="1" fold="1" page="1" pageScale="1" pageWidth="827" pageHeight="1169" math="0" shadow="0">
      <root>
        <mxCell id="Epklxd3dy9E38l8vw2Ka-0"/>
        <mxCell id="Epklxd3dy9E38l8vw2Ka-1" parent="Epklxd3dy9E38l8vw2Ka-0"/>
        <mxCell id="Epklxd3dy9E38l8vw2Ka-2" value="&lt;font style=&quot;font-size: 14px&quot;&gt;Finland&lt;/font&gt;" style="rounded=1;whiteSpace=wrap;html=1;fillColor=#ffcc99;strokeColor=none;verticalAlign=top;fontStyle=1;arcSize=5;" parent="Epklxd3dy9E38l8vw2Ka-1" vertex="1">
          <mxGeometry x="131" width="419" height="610" as="geometry"/>
        </mxCell>
        <mxCell id="Epklxd3dy9E38l8vw2Ka-16" value="" style="rounded=1;whiteSpace=wrap;html=1;align=left;fillColor=#ffcccc;strokeColor=#36393d;opacity=30;fontStyle=1" parent="Epklxd3dy9E38l8vw2Ka-1" vertex="1">
          <mxGeometry x="-20" y="539" width="580" height="60" as="geometry"/>
        </mxCell>
        <mxCell id="Epklxd3dy9E38l8vw2Ka-3" value="" style="rounded=1;whiteSpace=wrap;html=1;align=left;fillColor=#ffcccc;strokeColor=#36393d;opacity=30;fontStyle=1" parent="Epklxd3dy9E38l8vw2Ka-1" vertex="1">
          <mxGeometry x="-20" y="180" width="580" height="60" as="geometry"/>
        </mxCell>
        <mxCell id="Epklxd3dy9E38l8vw2Ka-4" value="" style="rounded=1;whiteSpace=wrap;html=1;align=left;fillColor=#ffcccc;strokeColor=#36393d;opacity=30;fontStyle=1" parent="Epklxd3dy9E38l8vw2Ka-1" vertex="1">
          <mxGeometry x="-20" y="40" width="580" height="60" as="geometry"/>
        </mxCell>
        <mxCell id="Epklxd3dy9E38l8vw2Ka-5" value="&lt;span style=&quot;font-size: 18px&quot;&gt;Planning and&amp;nbsp;&lt;br&gt;Control&lt;br&gt;&lt;/span&gt;" style="text;html=1;resizable=0;points=[];autosize=1;align=left;verticalAlign=top;spacingTop=-4;fontStyle=1" parent="Epklxd3dy9E38l8vw2Ka-1" vertex="1">
          <mxGeometry x="-9" y="54" width="130" height="30" as="geometry"/>
        </mxCell>
        <mxCell id="Epklxd3dy9E38l8vw2Ka-6" value="" style="rounded=1;whiteSpace=wrap;html=1;align=left;fillColor=#ffcccc;strokeColor=#36393d;opacity=30;fontStyle=1" parent="Epklxd3dy9E38l8vw2Ka-1" vertex="1">
          <mxGeometry x="-20" y="110" width="580" height="60" as="geometry"/>
        </mxCell>
        <mxCell id="Epklxd3dy9E38l8vw2Ka-7" value="&lt;span style=&quot;font-size: 18px&quot;&gt;Tender&lt;/span&gt;" style="text;html=1;resizable=0;points=[];autosize=1;align=left;verticalAlign=top;spacingTop=-4;fontStyle=1" parent="Epklxd3dy9E38l8vw2Ka-1" vertex="1">
          <mxGeometry x="-11" y="120" width="70" height="20" as="geometry"/>
        </mxCell>
        <mxCell id="Epklxd3dy9E38l8vw2Ka-8" value="" style="rounded=1;whiteSpace=wrap;html=1;align=left;fillColor=#ffcccc;strokeColor=#36393d;opacity=30;fontStyle=1" parent="Epklxd3dy9E38l8vw2Ka-1" vertex="1">
          <mxGeometry x="-20" y="252" width="580" height="60" as="geometry"/>
        </mxCell>
        <mxCell id="Epklxd3dy9E38l8vw2Ka-9" value="&lt;span style=&quot;font-size: 18px&quot;&gt;Order&lt;/span&gt;" style="text;html=1;resizable=0;points=[];autosize=1;align=left;verticalAlign=top;spacingTop=-4;fontStyle=1" parent="Epklxd3dy9E38l8vw2Ka-1" vertex="1">
          <mxGeometry x="-14" y="192" width="60" height="20" as="geometry"/>
        </mxCell>
        <mxCell id="Epklxd3dy9E38l8vw2Ka-10" value="&lt;span style=&quot;font-size: 18px&quot;&gt;Occupant&lt;br&gt;&lt;/span&gt;&lt;font style=&quot;font-size: 18px&quot;&gt;Customisations&lt;/font&gt;" style="text;html=1;resizable=0;points=[];autosize=1;align=left;verticalAlign=top;spacingTop=-4;fontStyle=1" parent="Epklxd3dy9E38l8vw2Ka-1" vertex="1">
          <mxGeometry x="-15" y="260" width="140" height="30" as="geometry"/>
        </mxCell>
        <mxCell id="Epklxd3dy9E38l8vw2Ka-11" value="" style="rounded=1;whiteSpace=wrap;html=1;align=left;fillColor=#ffcccc;strokeColor=#36393d;opacity=30;fontStyle=1" parent="Epklxd3dy9E38l8vw2Ka-1" vertex="1">
          <mxGeometry x="-20" y="330" width="580" height="60" as="geometry"/>
        </mxCell>
        <mxCell id="Epklxd3dy9E38l8vw2Ka-12" value="&lt;span style=&quot;font-size: 18px&quot;&gt;Delivery&lt;/span&gt;" style="text;html=1;resizable=0;points=[];autosize=1;align=left;verticalAlign=top;spacingTop=-4;fontStyle=1" parent="Epklxd3dy9E38l8vw2Ka-1" vertex="1">
          <mxGeometry x="-13" y="344" width="80" height="20" as="geometry"/>
        </mxCell>
        <mxCell id="Epklxd3dy9E38l8vw2Ka-13" value="" style="rounded=1;whiteSpace=wrap;html=1;align=left;fillColor=#ffcccc;strokeColor=#36393d;opacity=30;fontStyle=1" parent="Epklxd3dy9E38l8vw2Ka-1" vertex="1">
          <mxGeometry x="-20" y="400" width="580" height="60" as="geometry"/>
        </mxCell>
        <mxCell id="Epklxd3dy9E38l8vw2Ka-14" value="&lt;span style=&quot;font-size: 18px&quot;&gt;Installation&lt;/span&gt;" style="text;html=1;resizable=0;points=[];autosize=1;align=left;verticalAlign=top;spacingTop=-4;fontStyle=1" parent="Epklxd3dy9E38l8vw2Ka-1" vertex="1">
          <mxGeometry x="-10" y="415" width="100" height="20" as="geometry"/>
        </mxCell>
        <mxCell id="Epklxd3dy9E38l8vw2Ka-15" value="&lt;span style=&quot;font-size: 18px&quot;&gt;After Care&lt;/span&gt;" style="text;html=1;resizable=0;points=[];autosize=1;align=left;verticalAlign=top;spacingTop=-4;fontStyle=1" parent="Epklxd3dy9E38l8vw2Ka-1" vertex="1">
          <mxGeometry x="-14" y="552" width="100" height="20" as="geometry"/>
        </mxCell>
        <mxCell id="Epklxd3dy9E38l8vw2Ka-17" value="Review RFT" style="rounded=1;whiteSpace=wrap;html=1;" parent="Epklxd3dy9E38l8vw2Ka-1" vertex="1">
          <mxGeometry x="140" y="45" width="90" height="50" as="geometry"/>
        </mxCell>
        <mxCell id="Epklxd3dy9E38l8vw2Ka-18" value="Create Project" style="rounded=1;whiteSpace=wrap;html=1;" parent="Epklxd3dy9E38l8vw2Ka-1" vertex="1">
          <mxGeometry x="240" y="45" width="90" height="50" as="geometry"/>
        </mxCell>
        <mxCell id="Epklxd3dy9E38l8vw2Ka-21" value="Preplanning (Initial Drawings &amp;amp; Iterations)" style="rounded=1;whiteSpace=wrap;html=1;" parent="Epklxd3dy9E38l8vw2Ka-1" vertex="1">
          <mxGeometry x="140" y="114.5" width="90" height="50" as="geometry"/>
        </mxCell>
        <mxCell id="Epklxd3dy9E38l8vw2Ka-22" value="Review Customer Specifications" style="rounded=1;whiteSpace=wrap;html=1;" parent="Epklxd3dy9E38l8vw2Ka-1" vertex="1">
          <mxGeometry x="240" y="114.5" width="90" height="50" as="geometry"/>
        </mxCell>
        <mxCell id="Epklxd3dy9E38l8vw2Ka-24" value="Transform Quotation to Order" style="rounded=1;whiteSpace=wrap;html=1;" parent="Epklxd3dy9E38l8vw2Ka-1" vertex="1">
          <mxGeometry x="140" y="185" width="90" height="50" as="geometry"/>
        </mxCell>
        <mxCell id="Epklxd3dy9E38l8vw2Ka-25" value="Arrange Occupant Modifications" style="rounded=1;whiteSpace=wrap;html=1;" parent="Epklxd3dy9E38l8vw2Ka-1" vertex="1">
          <mxGeometry x="140" y="257.5" width="90" height="50" as="geometry"/>
        </mxCell>
        <mxCell id="Epklxd3dy9E38l8vw2Ka-28" value="Handle Reclamations" style="rounded=1;whiteSpace=wrap;html=1;" parent="Epklxd3dy9E38l8vw2Ka-1" vertex="1">
          <mxGeometry x="140" y="544" width="90" height="50" as="geometry"/>
        </mxCell>
        <mxCell id="iOLPwjFM6uhp_4ysxBij-0" value="Send Order Confirmation to Customer" style="rounded=1;whiteSpace=wrap;html=1;" parent="Epklxd3dy9E38l8vw2Ka-1" vertex="1">
          <mxGeometry x="239" y="183" width="90" height="55" as="geometry"/>
        </mxCell>
        <mxCell id="iOLPwjFM6uhp_4ysxBij-1" value="Approve Delivery Schedule and Phasing" style="rounded=1;whiteSpace=wrap;html=1;" parent="Epklxd3dy9E38l8vw2Ka-1" vertex="1">
          <mxGeometry x="140" y="332.5" width="90" height="55" as="geometry"/>
        </mxCell>
        <mxCell id="iOLPwjFM6uhp_4ysxBij-2" value="Transfer Order to Production" style="rounded=1;whiteSpace=wrap;html=1;" parent="Epklxd3dy9E38l8vw2Ka-1" vertex="1">
          <mxGeometry x="342" y="185" width="90" height="51" as="geometry"/>
        </mxCell>
        <mxCell id="iOLPwjFM6uhp_4ysxBij-3" value="Assign Installer" style="rounded=1;whiteSpace=wrap;html=1;" parent="Epklxd3dy9E38l8vw2Ka-1" vertex="1">
          <mxGeometry x="140" y="402.5" width="90" height="50" as="geometry"/>
        </mxCell>
        <mxCell id="iOLPwjFM6uhp_4ysxBij-4" value="Install according to drawings" style="rounded=1;whiteSpace=wrap;html=1;" parent="Epklxd3dy9E38l8vw2Ka-1" vertex="1">
          <mxGeometry x="240" y="405" width="90" height="50" as="geometry"/>
        </mxCell>
        <mxCell id="iOLPwjFM6uhp_4ysxBij-5" value="Post orders and reclamations" style="rounded=1;whiteSpace=wrap;html=1;" parent="Epklxd3dy9E38l8vw2Ka-1" vertex="1">
          <mxGeometry x="340" y="405" width="90" height="50" as="geometry"/>
        </mxCell>
        <mxCell id="iOLPwjFM6uhp_4ysxBij-6" value="Review and hand-over (sign-off)" style="rounded=1;whiteSpace=wrap;html=1;" parent="Epklxd3dy9E38l8vw2Ka-1" vertex="1">
          <mxGeometry x="441" y="405" width="90" height="50" as="geometry"/>
        </mxCell>
        <mxCell id="N1ox53o2d26jwv5xddcP-0" value="" style="rounded=1;whiteSpace=wrap;html=1;align=left;fillColor=#ffcccc;strokeColor=#36393d;opacity=30;fontStyle=1" parent="Epklxd3dy9E38l8vw2Ka-1" vertex="1">
          <mxGeometry x="-20" y="470" width="580" height="60" as="geometry"/>
        </mxCell>
        <mxCell id="N1ox53o2d26jwv5xddcP-2" value="&lt;span style=&quot;font-size: 18px&quot;&gt;Billing&lt;/span&gt;" style="text;html=1;resizable=0;points=[];autosize=1;align=left;verticalAlign=top;spacingTop=-4;fontStyle=1" parent="Epklxd3dy9E38l8vw2Ka-1" vertex="1">
          <mxGeometry x="-9" y="490" width="60" height="20" as="geometry"/>
        </mxCell>
        <mxCell id="wUI5Y0MLvb6cAS2OpFb2-0" value="" style="shape=image;html=1;verticalAlign=top;verticalLabelPosition=bottom;labelBackgroundColor=#ffffff;imageAspect=0;aspect=fixed;image=https://cdn0.iconfinder.com/data/icons/feather/96/circle-cross-128.png;glass=0;comic=0;opacity=70;align=left;" parent="Epklxd3dy9E38l8vw2Ka-1" vertex="1">
          <mxGeometry x="160.5" y="471" width="49" height="49" as="geometry"/>
        </mxCell>
      </root>
    </mxGraphModel>
  </diagram>
</mxfile>
